<?xml version="1.0" encoding="utf-8"?>
<!-- Generator: Adobe Illustrator 24.0.1, SVG Export Plug-In . SVG Version: 6.00 Build 0)  -->
<svg version="1.1" id="Layer_1" xmlns="http://www.w3.org/2000/svg" xmlns:xlink="http://www.w3.org/1999/xlink" x="0px" y="0px"
	 viewBox="0 0 595.28 841.89" style="enable-background:new 0 0 595.28 841.89;" xml:space="preserve">
<style type="text/css">
	.st0{fill:#1B1D3A;}
	.st1{fill:#393653;}
	.st2{fill:#024760;}
	.st3{fill:#374F61;}
	.st4{fill:#010202;}
	.st5{fill:#FDFDFD;}
</style>
<polygon class="st0" points="307.48,54.82 275.28,211 295.29,211 327.5,54.82 "/>
<polygon class="st1" points="269.95,195.61 249.57,195.61 275.24,169.93 280.9,142.52 278.66,144.76 212.41,211 266.77,211 "/>
<polygon class="st1" points="332.84,70.22 353.22,70.22 327.55,95.89 321.9,123.3 324.14,121.06 390.38,54.82 336.02,54.82 "/>
<g>
	<polygon class="st2" points="307.47,314.41 275.27,470.6 295.28,470.6 327.49,314.41 	"/>
	<polygon class="st3" points="269.94,455.2 249.56,455.2 275.23,429.53 280.89,402.11 278.65,404.35 212.4,470.6 266.76,470.6 	"/>
	<polygon class="st3" points="332.83,329.81 353.21,329.81 327.54,355.48 321.89,382.9 324.13,380.66 390.37,314.41 336.01,314.41 	
		"/>
</g>
<g>
	<polygon class="st4" points="459.69,610.51 427.48,766.7 447.49,766.7 479.7,610.51 	"/>
	<polygon class="st4" points="422.15,751.3 401.77,751.3 427.45,725.63 433.1,698.21 430.86,700.45 364.61,766.7 418.98,766.7 	"/>
	<polygon class="st4" points="485.05,625.91 505.43,625.91 479.75,651.58 474.1,679 476.34,676.76 542.59,610.51 488.22,610.51 	"/>
</g>
<rect y="535.32" class="st4" width="301.38" height="306.57"/>
<g>
	<polygon class="st5" points="156.78,600.9 124.57,757.09 144.58,757.09 176.79,600.9 	"/>
	<polygon class="st5" points="119.24,741.69 98.86,741.69 124.53,716.02 130.19,688.6 127.95,690.84 61.7,757.09 116.06,757.09 	"/>
	<polygon class="st5" points="182.14,616.3 202.51,616.3 176.84,641.97 171.19,669.39 173.43,667.15 239.67,600.9 185.31,600.9 	"/>
</g>
</svg>
